<svg width="235" height="67" viewBox="0 0 235 67" fill="none" xmlns="http://www.w3.org/2000/svg">
<path d="M33.2518 28.4906H12.4701C12.9094 29.6196 13.6348 30.488 14.6565 31.0908C15.6782 31.6937 16.9554 31.9951 18.4829 31.9951C19.7958 31.9951 20.8992 31.8316 21.7932 31.5046C22.6872 31.1777 23.663 30.6106 24.7204 29.8086L31.1726 36.3169C28.2556 39.5251 23.898 41.1292 18.0997 41.1292C14.4879 41.1292 11.3206 40.4651 8.58242 39.1318C5.84933 37.8035 3.73438 35.9491 2.23756 33.5787C0.745853 31.2083 0 28.5468 0 25.594C0 22.6055 0.740745 19.9337 2.21713 17.5837C3.69351 15.2338 5.71651 13.3998 8.28612 12.0869C10.8557 10.774 13.7472 10.1201 16.9554 10.1201C19.9797 10.1201 22.7434 10.7229 25.2415 11.9234C27.7396 13.1291 29.7269 14.8966 31.2032 17.2261C32.6796 19.5608 33.4204 22.3501 33.4204 25.594C33.4153 25.7779 33.3591 26.7434 33.2518 28.4906ZM13.8902 19.5761C13.0524 20.2709 12.5058 21.2517 12.2504 22.5289H21.875C21.6195 21.2875 21.0729 20.3117 20.2351 19.6016C19.3973 18.8915 18.3398 18.5339 17.0627 18.5339C15.7855 18.5391 14.7281 18.8864 13.8902 19.5761Z" fill="#3C3C3B"/>
<path d="M37.5685 20.1278H53.9773V29.4254H37.5685V20.1278Z" fill="#3C3C3B"/>
<path d="M95.4284 24.2249C96.6698 25.829 97.2879 27.76 97.2879 30.0232C97.2879 33.3795 95.9035 35.9747 93.1295 37.8189C90.3607 39.6579 86.3504 40.5826 81.0988 40.5826H59.5508V2.29886H80.0056C85.109 2.29886 88.966 3.20819 91.5714 5.03196C94.1768 6.85572 95.4795 9.27719 95.4795 12.3066C95.4795 14.0946 95.035 15.6987 94.141 17.1189C93.247 18.5391 91.9239 19.6885 90.1767 20.5621C92.4398 21.3999 94.1921 22.6208 95.4284 24.2249ZM72.2405 11.3206V17.0065H78.2584C81.063 17.0065 82.4679 16.0614 82.4679 14.161C82.4679 12.2657 81.063 11.3155 78.2584 11.3155H72.2405V11.3206ZM84.2763 28.5468C84.2763 26.5442 82.8561 25.5378 80.0107 25.5378H72.2456V31.5557H80.0107C82.851 31.5557 84.2763 30.5544 84.2763 28.5468Z" fill="#FF680A"/>
<path d="M134.151 10.6667V40.5826H122.391V37.7371C121.298 38.8661 120.021 39.7141 118.565 40.2812C117.104 40.8482 115.556 41.1292 113.916 41.1292C110.126 41.1292 107.081 39.9747 104.782 37.6554C102.483 35.3412 101.339 31.852 101.339 27.1828V10.6667H113.697V25.0474C113.697 27.0908 114.024 28.5468 114.683 29.4203C115.337 30.2939 116.302 30.7332 117.579 30.7332C118.785 30.7332 119.786 30.253 120.588 29.2824C121.39 28.3169 121.789 26.7945 121.789 24.7153V10.6667H134.151Z" fill="#3C3C3B"/>
<path d="M153.947 31.3923L151.98 33.5225V40.5775H139.618V0H151.975V19.3615L160.563 10.6667H175.163L162.805 23.6272L176.149 40.5826H161.217L153.947 31.3923Z" fill="#3C3C3B"/>
<path d="M208.91 28.4906H188.129C188.568 29.6196 189.294 30.488 190.315 31.0908C191.337 31.6937 192.614 31.9951 194.142 31.9951C195.454 31.9951 196.558 31.8316 197.452 31.5046C198.346 31.1777 199.322 30.6106 200.379 29.8086L206.831 36.3169C203.914 39.5251 199.557 41.1292 193.764 41.1292C190.152 41.1292 186.984 40.4651 184.246 39.1318C181.513 37.8035 179.398 35.9491 177.901 33.5787C176.405 31.2083 175.659 28.5468 175.659 25.594C175.659 22.6055 176.394 19.9337 177.871 17.5837C179.347 15.2338 181.37 13.3998 183.94 12.0869C186.509 10.774 189.401 10.1201 192.609 10.1201C195.633 10.1201 198.397 10.7229 200.895 11.9234C203.393 13.1291 205.38 14.8966 206.857 17.2261C208.333 19.5608 209.074 22.3501 209.074 25.594C209.074 25.7779 209.018 26.7434 208.91 28.4906ZM189.549 19.5761C188.711 20.2709 188.164 21.2517 187.909 22.5289H197.534C197.278 21.2875 196.732 20.3117 195.894 19.6016C195.056 18.8915 193.999 18.5339 192.721 18.5339C191.444 18.5391 190.387 18.8864 189.549 19.5761Z" fill="#3C3C3B"/>
<path d="M234.995 39.5404C233.135 40.5979 230.602 41.1241 227.393 41.1241C223.199 41.1241 219.976 40.1126 217.713 38.0896C215.449 36.0666 214.32 33.0321 214.32 28.9861V21.3283H210.218V12.3066H214.32V3.93871H226.678V12.3066H232.803V21.3283H226.678V28.8737C226.678 29.783 226.913 30.4982 227.388 31.004C227.863 31.5149 228.481 31.7703 229.248 31.7703C230.305 31.7703 231.235 31.4944 232.037 30.9478L234.995 39.5404Z" fill="#3C3C3B"/>
<path d="M10.4828 63.3771V66.8918H9.42023V64.363H0V53.5686H1.12389V63.372H7.64755V53.5686H8.77144V63.372H10.4828V63.3771Z" fill="#3C3C3B"/>
<path d="M20.8583 59.6989C21.2466 60.1485 21.4458 60.7308 21.4458 61.4512C21.4458 62.386 21.1138 63.1063 20.4497 63.607C19.7855 64.1127 18.8149 64.363 17.5275 64.363H12.7459V53.5686H17.2312C18.3807 53.5686 19.2798 53.8036 19.9286 54.2787C20.5774 54.7538 20.8992 55.4332 20.8992 56.3272C20.8992 56.9352 20.746 57.446 20.4343 57.8598C20.1278 58.2736 19.6936 58.5852 19.1419 58.7947C19.8979 58.9531 20.4701 59.2545 20.8583 59.6989ZM13.8749 58.4575H17.1751C18.0078 58.4575 18.6463 58.2889 19.0959 57.9467C19.5454 57.6095 19.7651 57.114 19.7651 56.4652C19.7651 55.8164 19.5403 55.326 19.0959 54.9837C18.6514 54.6465 18.0078 54.4728 17.1751 54.4728H13.8749V58.4575ZM20.3219 61.3745C20.3219 60.0156 19.3922 59.3413 17.5327 59.3413H13.88V63.4588H17.5327C19.3922 63.4537 20.3219 62.759 20.3219 61.3745Z" fill="#3C3C3B"/>
<path d="M31.9287 63.3771V64.363H24.2964V53.5686H31.6988V54.5546H25.4408V58.3962H31.0245V59.3669H25.4408V63.3771H31.9287Z" fill="#3C3C3B"/>
<path d="M41.5175 54.5597H37.7269V64.3631H36.603V54.5597H32.8124V53.5737H41.5226V54.5597H41.5175Z" fill="#3C3C3B"/>
<path d="M45.1956 63.7398C44.3272 63.2596 43.6477 62.6057 43.1624 61.773C42.672 60.9403 42.4319 60.0054 42.4319 58.9684C42.4319 57.9313 42.6771 56.9965 43.1624 56.1638C43.6528 55.3311 44.3272 54.6772 45.1956 54.197C46.0641 53.7168 47.0347 53.4818 48.1024 53.4818C49.1701 53.4818 50.1356 53.7168 50.9939 54.1919C51.8521 54.667 52.5264 55.3209 53.022 56.1587C53.5175 56.9965 53.7627 57.9365 53.7627 58.9735C53.7627 60.0105 53.5175 60.9505 53.022 61.7883C52.5264 62.6261 51.8521 63.28 50.9939 63.7551C50.1356 64.2302 49.1701 64.4652 48.1024 64.4652C47.0347 64.4652 46.0641 64.2149 45.1956 63.7398ZM50.4166 62.8611C51.1063 62.478 51.6427 61.9416 52.036 61.257C52.4243 60.5725 52.6235 59.8113 52.6235 58.9684C52.6235 58.1255 52.4294 57.3643 52.036 56.6797C51.6478 55.9952 51.1063 55.4639 50.4166 55.0756C49.7269 54.6925 48.9555 54.4984 48.1024 54.4984C47.2493 54.4984 46.4779 54.6925 45.7831 55.0756C45.0884 55.4588 44.5468 55.9952 44.1484 56.6797C43.7499 57.3643 43.5558 58.1255 43.5558 58.9684C43.5558 59.8113 43.755 60.5725 44.1484 61.257C44.5417 61.9416 45.0884 62.4729 45.7831 62.8611C46.4779 63.2443 47.2493 63.4384 48.1024 63.4384C48.9555 63.4384 49.7269 63.2443 50.4166 62.8611Z" fill="#3C3C3B"/>
<path d="M63.8726 53.5686V64.363H62.764V59.893C61.5942 60.3988 60.455 60.6491 59.3566 60.6491C58.0948 60.6491 57.1088 60.3426 56.4039 59.7245C55.6989 59.1063 55.3464 58.243 55.3464 57.1344V53.5737H56.4703V57.0118C56.4703 57.8445 56.7308 58.4933 57.257 58.9531C57.7832 59.4179 58.5137 59.6478 59.4639 59.6478C60.5418 59.6478 61.6453 59.3924 62.764 58.8764V53.5737H63.8726V53.5686Z" fill="#3C3C3B"/>
<path d="M76.547 53.5686V64.363H75.4232V59.3822H68.6696V64.363H67.5304V53.5686H68.6696V58.3809H75.4232V53.5686H76.547Z" fill="#3C3C3B"/>
<path d="M87.6276 58.2889C88.3019 58.8662 88.639 59.7091 88.639 60.8177C88.639 61.9773 88.2815 62.8611 87.5662 63.4639C86.851 64.0668 85.8191 64.3682 84.4756 64.3682H80.1895V53.5737H81.3133V57.4256H84.7054C85.9775 57.4256 86.9532 57.7117 87.6276 58.2889ZM86.7182 62.7896C87.2393 62.3452 87.4947 61.6964 87.4947 60.833C87.4947 59.1778 86.4781 58.3502 84.4398 58.3502H81.3082V63.4537H84.4398C85.4411 63.4537 86.1971 63.2341 86.7182 62.7896ZM90.5037 53.5686H91.6276V64.363H90.5037V53.5686Z" fill="#3C3C3B"/>
<path d="M95.2649 53.5686H96.3888V62.5086L103.296 53.5686H104.328V64.3631H103.204V55.4384L96.2968 64.3631H95.2649V53.5686ZM97.9418 52.2608C97.4922 51.9134 97.2675 51.423 97.2572 50.7947H98.1053C98.1155 51.2085 98.2687 51.5303 98.5701 51.7653C98.8664 52.0003 99.27 52.1178 99.7707 52.1178C100.266 52.1178 100.665 52.0003 100.966 51.7653C101.267 51.5303 101.426 51.2033 101.436 50.7947H102.284C102.274 51.423 102.044 51.9083 101.589 52.2608C101.135 52.6082 100.532 52.787 99.7707 52.787C98.9942 52.787 98.3862 52.6082 97.9418 52.2608Z" fill="#3C3C3B"/>
<path d="M123.219 53.5686V64.363H122.126V55.7295L117.886 62.9888H117.344L113.104 55.7755V64.363H112.011V53.5686H112.951L117.64 61.5687L122.279 53.5686H123.219Z" fill="#3C3C3B"/>
<path d="M133.763 61.4818H127.75L126.453 64.363H125.268L130.202 53.5686H131.326L136.261 64.363H135.061L133.763 61.4818ZM133.344 60.5572L130.754 54.7589L128.164 60.5572H133.344Z" fill="#3C3C3B"/>
<path d="M145.605 54.5597C146.386 55.2187 146.775 56.1229 146.775 57.2723C146.775 58.4218 146.381 59.326 145.605 59.9799C144.823 60.6338 143.745 60.9607 142.366 60.9607H139.469V64.3682H138.33V53.5737H142.371C143.745 53.5686 144.823 53.9007 145.605 54.5597ZM144.788 59.2545C145.355 58.7845 145.636 58.1255 145.636 57.2723C145.636 56.3988 145.355 55.7295 144.788 55.2596C144.22 54.7896 143.403 54.5597 142.335 54.5597H139.469V59.9543H142.335C143.403 59.9543 144.22 59.7193 144.788 59.2545Z" fill="#3C3C3B"/>
<path d="M152.696 59.4128H150.228V64.363H149.12V53.5686H150.228V58.4115H152.696L156.348 53.5686H157.579L153.569 58.81L157.809 64.3579H156.496L152.696 59.4128Z" fill="#3C3C3B"/>
<path d="M167.204 63.3771V64.363H159.572V53.5686H166.974V54.5546H160.716V58.3962H166.3V59.3669H160.716V63.3771H167.204Z" fill="#3C3C3B"/>
<path d="M176.793 54.5597H173.002V64.3631H171.878V54.5597H168.088V53.5737H176.798V54.5597H176.793Z" fill="#3C3C3B"/>
<path d="M187.878 53.5686V64.363H186.755V54.5597H179.924V64.363H178.8V53.5686H187.878Z" fill="#3C3C3B"/>
<path d="M199.812 53.5686V64.363H198.688V54.5597H193.477L193.355 58.1663C193.304 59.658 193.181 60.8586 192.992 61.7679C192.803 62.6772 192.512 63.3567 192.119 63.8011C191.725 64.2507 191.209 64.4703 190.56 64.4703C190.285 64.4703 189.993 64.4346 189.697 64.363L189.789 63.3464C189.963 63.3873 190.131 63.4077 190.3 63.4077C190.755 63.4077 191.117 63.2289 191.403 62.8662C191.684 62.5086 191.899 61.9467 192.042 61.1957C192.185 60.4397 192.282 59.4384 192.333 58.197L192.486 53.5737H199.812V53.5686Z" fill="#3C3C3B"/>
<path d="M211.082 63.3771V64.363H203.449V53.5686H210.852V54.5546H204.594V58.3962H210.177V59.3669H204.594V63.3771H211.082Z" fill="#3C3C3B"/>
<path d="M213.61 53.5686H214.734V62.5086L221.641 53.5686H222.673V64.3631H221.549V55.4384L214.642 64.3631H213.61V53.5686ZM216.287 52.2608C215.838 51.9134 215.613 51.423 215.603 50.7947H216.451C216.461 51.2085 216.614 51.5303 216.916 51.7653C217.212 52.0003 217.615 52.1178 218.116 52.1178C218.612 52.1178 219.01 52.0003 219.312 51.7653C219.613 51.5303 219.771 51.2033 219.782 50.7947H220.63C220.619 51.423 220.389 51.9083 219.935 52.2608C219.48 52.6082 218.877 52.787 218.116 52.787C217.34 52.787 216.732 52.6082 216.287 52.2608Z" fill="#3C3C3B"/>
<path d="M228.144 63.7449C227.286 63.2749 226.612 62.6159 226.126 61.7781C225.636 60.9403 225.396 60.0003 225.396 58.9633C225.396 57.9262 225.641 56.9863 226.126 56.1485C226.612 55.3106 227.291 54.6567 228.155 54.1816C229.018 53.7065 229.983 53.4715 231.051 53.4715C231.853 53.4715 232.594 53.6044 233.273 53.87C233.953 54.1357 234.525 54.529 235 55.0399L234.275 55.7653C233.432 54.9122 232.369 54.4831 231.082 54.4831C230.229 54.4831 229.452 54.6772 228.752 55.0705C228.052 55.4588 227.506 55.9952 227.112 56.6746C226.714 57.3541 226.52 58.1153 226.52 58.9582C226.52 59.8011 226.719 60.5623 227.112 61.2417C227.506 61.9211 228.057 62.4524 228.752 62.8458C229.452 63.2341 230.229 63.4333 231.082 63.4333C232.379 63.4333 233.442 62.9991 234.275 62.1357L235 62.8611C234.525 63.3771 233.948 63.7705 233.263 64.0412C232.579 64.312 231.838 64.4499 231.036 64.4499C229.963 64.455 229.003 64.22 228.144 63.7449Z" fill="#3C3C3B"/>
</svg>
